<?xml version="1.0" encoding="UTF-8"?>
<svg version="1.1" xmlns="http://www.w3.org/2000/svg" width="1024" height="1024">
  <path
    d="M0 0 C337.92 0 675.84 0 1024 0 C1024 337.92 1024 675.84 1024 1024 C686.08 1024 348.16 1024 0 1024 C0 686.08 0 348.16 0 0 Z "
    fill="#0f1727" transform="translate(0,0)"/>
  <path
    d="M0 0 C1.8244033 -0.00668677 1.8244033 -0.00668677 3.68566322 -0.01350862 C5.03728359 -0.01341932 6.38890395 -0.01322948 7.74052429 -0.01294994 C9.17498054 -0.01624963 10.60943586 -0.01997542 12.04389 -0.02409142 C15.99083591 -0.03410788 19.93776661 -0.03782766 23.88472342 -0.04048073 C28.13987101 -0.0443849 32.39500658 -0.05396324 36.65014648 -0.0626936 C46.92967765 -0.08245606 57.20920981 -0.09252449 67.48875523 -0.10142139 C72.3307152 -0.10580513 77.17267407 -0.11117176 82.01463318 -0.11641026 C98.11291782 -0.13342323 114.21120177 -0.14791669 130.30949402 -0.155159 C134.48710633 -0.15706887 138.66471864 -0.1589892 142.84233093 -0.16094494 C143.88064576 -0.16142868 144.91896058 -0.16191242 145.98873949 -0.16241082 C162.80308108 -0.17070843 179.61735146 -0.19604049 196.43166196 -0.22852562 C213.69843745 -0.2616126 230.96517678 -0.27960929 248.23198414 -0.28280324 C257.92503079 -0.28496694 267.61797365 -0.29369508 277.31098938 -0.31926441 C285.56741397 -0.34099389 293.82370955 -0.34901082 302.08015949 -0.33929763 C306.29027877 -0.33475928 310.50013199 -0.33661188 314.71021461 -0.35605907 C318.5708165 -0.37373732 322.43095917 -0.37265568 326.29156625 -0.35716178 C327.68196617 -0.35479272 329.07239827 -0.35907259 330.46274912 -0.37099043 C346.84946316 -0.50265871 359.82183764 4.55820365 371.73539734 15.75140858 C380.73222884 24.8526809 388.32580939 36.9763179 388.35092831 50.14051437 C388.36152669 51.92108983 388.36152669 51.92108983 388.37233919 53.73763651 C388.3699241 55.03285008 388.36750902 56.32806366 388.36502075 57.66252613 C388.36947524 59.05944911 388.37478998 60.45636956 388.38088948 61.85328633 C388.39505541 65.68732565 388.39673303 69.52128386 388.39629257 73.35534561 C388.39794209 77.49259703 388.41101138 81.62981516 388.42248535 85.76704884 C388.44532703 94.81286628 388.45325553 103.85866025 388.4583118 112.90450263 C388.46157072 118.55676831 388.46809451 124.20902719 388.47531319 129.86128902 C388.49488045 145.52129459 388.51128311 161.18129383 388.51418972 176.84131241 C388.51437729 177.84331608 388.51456486 178.84531974 388.51475811 179.87768716 C388.51512436 181.90888027 388.51548806 183.94007339 388.51584923 185.9712665 C388.51603204 186.97951173 388.51621485 187.98775695 388.5164032 189.02655506 C388.51667402 190.5407771 388.51667402 190.5407771 388.51695032 192.08558948 C388.52048908 208.4289792 388.54749229 224.77223693 388.58490109 241.11558091 C388.62303111 257.90896463 388.64234755 274.70228295 388.64264923 291.49571091 C388.64323286 300.91888927 388.65166301 310.34191029 388.6806469 319.76504803 C388.70522399 327.79226395 388.71240134 335.81926519 388.69739937 343.84650861 C388.69025544 347.93757903 388.69097802 352.02822608 388.71380997 356.11924839 C388.73456611 359.87455235 388.73164713 363.62911196 388.71093512 367.38440932 C388.70584789 369.36533837 388.72509167 371.34628554 388.74559683 373.327115 C388.59321871 389.81319058 382.16646379 404.15976724 371.02445984 416.29437733 C357.84165143 428.83801927 342.70781443 432.44112841 325.04994202 432.40837574 C323.63393072 432.41283417 322.21792192 432.41815019 320.80191672 432.42424446 C316.92904924 432.4383624 313.05626225 432.44008894 309.18337274 432.43964756 C304.99913913 432.44130126 300.81493815 432.45437806 296.63072205 432.46584034 C287.49004392 432.48864645 278.34938907 432.49660617 269.20868635 432.50166678 C263.49593353 432.50492882 257.78318741 432.51145434 252.07043839 432.51866817 C236.2378861 432.53822813 220.40534003 432.55463596 204.57277489 432.55754471 C203.05437176 432.55782606 203.05437176 432.55782606 201.50529382 432.5581131 C199.45339052 432.55847934 197.40148721 432.55884304 195.34958391 432.55920421 C193.82183841 432.55947843 193.82183841 432.55947843 192.26322937 432.55975819 C191.24348206 432.55993874 190.22373475 432.56011928 189.173086 432.5603053 C172.65529147 432.5638458 156.1376274 432.59086309 139.6198781 432.62825608 C122.64107745 432.66638367 105.66234146 432.68570251 88.68349707 432.68600422 C79.15864177 432.68658777 69.63394214 432.695014 60.10912704 432.72400188 C51.99780955 432.74857535 43.8867045 432.7557585 35.77535979 432.74075436 C31.64173954 432.73360987 27.50853832 432.73433572 23.37496567 432.75716496 C19.58092505 432.77791707 15.78762126 432.77500577 11.99358721 432.75429011 C9.99192404 432.74920163 7.99024297 432.76844935 5.98867834 432.78895181 C-9.95539637 432.64303982 -23.88507809 426.90276363 -35.59663391 416.00922108 C-44.06216582 407.05821063 -48.95435159 397.00343141 -51.90913391 385.13422108 C-52.17387183 384.23272424 -52.17387183 384.23272424 -52.44395798 383.31301534 C-53.01004983 380.66155038 -53.03850082 378.20861426 -53.04335499 375.49616909 C-53.04781283 374.34035135 -53.05227068 373.18453361 -53.05686361 371.99369109 C-53.05667924 370.72309729 -53.05649488 369.4525035 -53.05630493 368.14340687 C-53.05960484 366.78049756 -53.06333067 365.41758923 -53.06744641 364.05468214 C-53.07746062 360.30542413 -53.08118229 356.55618214 -53.08383572 352.80691266 C-53.08774064 348.7644074 -53.09731903 344.72191479 -53.10604858 340.67941761 C-53.12581049 330.9130433 -53.13588009 321.14666796 -53.14477637 311.38027865 C-53.14916082 306.77866013 -53.15452732 302.17704276 -53.15976524 297.57542515 C-53.1767793 282.27321645 -53.19127184 266.97100847 -53.19851398 251.66879177 C-53.20042382 247.69779554 -53.20234416 243.72679932 -53.20429993 239.75580311 C-53.20478367 238.76885336 -53.20526741 237.7819036 -53.20576581 236.76504628 C-53.21405993 220.78946918 -53.23938562 204.8139671 -53.2718806 188.83842273 C-53.30498688 172.42818691 -53.32296608 156.01798916 -53.32615823 139.60771978 C-53.32832031 130.39750828 -53.33702444 121.1874061 -53.3626194 111.97722721 C-53.38437541 104.13038739 -53.39235289 96.28368344 -53.38265262 88.43681689 C-53.3781217 84.43707215 -53.37992304 80.43760745 -53.39941406 76.4379015 C-53.41714643 72.76716424 -53.41596759 69.0969092 -53.40051677 65.4261661 C-53.39704806 63.48815042 -53.41309167 61.55012908 -53.43012124 59.61218512 C-53.30984957 43.04648244 -47.81606998 28.51182078 -36.38179016 16.48578358 C-26.42606923 7.0176256 -14.00330079 0.02380436 0 0 Z "
    fill="#FAF8F2" transform="translate(343.9091339111328,198.86577892303467)"/>
  <path d="M0 0 C55.77 0 111.54 0 169 0 C169 30.36 169 60.72 169 92 C113.23 92 57.46 92 0 92 C0 61.64 0 31.28 0 0 Z "
        fill="#FBF8F2" transform="translate(381,267)"/>
  <path
    d="M0 0 C0.76028503 -0.00709439 1.52057007 -0.01418877 2.30389404 -0.02149814 C4.84764388 -0.03907926 7.38986589 -0.02097404 9.93359375 -0.00291443 C11.75871476 -0.00805323 13.58383081 -0.01533421 15.40893555 -0.02459717 C20.36354926 -0.04312438 25.3176254 -0.03016422 30.2722168 -0.01050687 C35.45622389 0.00587 40.64019669 -0.00293193 45.82421875 -0.00802612 C54.53003534 -0.01254815 63.23563715 0.00332958 71.94140625 0.03126526 C82.00771884 0.0633176 92.07364403 0.06330175 102.13998413 0.04605049 C111.82188781 0.03018895 121.50364941 0.03691658 131.18554688 0.0539875 C135.30667908 0.06086167 139.42769751 0.05982178 143.54882812 0.05244255 C148.40150877 0.04478371 153.25374834 0.05689279 158.10635376 0.08429146 C159.88773286 0.09118058 161.66915311 0.09126762 163.45053101 0.08407593 C165.88157608 0.07539207 168.31125657 0.0913178 170.7421875 0.11352539 C171.44792908 0.10528462 172.15367065 0.09704386 172.88079834 0.08855337 C176.29603057 0.14617613 178.3350466 0.60726078 181.308218 2.33342934 C183.77468581 5.07714818 183.99854015 6.21655385 184.00601196 9.85900879 C184.02011108 10.91746506 184.03421021 11.97592133 184.04873657 13.06645203 C184.03861542 14.22240875 184.02849426 15.37836548 184.01806641 16.5693512 C184.026828 17.79085373 184.0355896 19.01235626 184.0446167 20.27087402 C184.06285548 23.61851736 184.05857846 26.96461584 184.04272127 30.31217265 C184.03005461 33.81723645 184.04180475 37.32223461 184.0496521 40.82730103 C184.05874773 46.71441995 184.04676465 52.60122522 184.02294922 58.48829651 C183.99575026 65.29021426 184.00454271 72.09138237 184.03208125 78.89328188 C184.05478923 84.73634495 184.05796391 90.57918264 184.0448879 96.4222756 C184.03710085 99.91067986 184.0360304 103.39873207 184.05257034 106.88711357 C184.06972816 110.77758161 184.04593164 114.6672139 184.01806641 118.55763245 C184.02818756 119.71156494 184.03830872 120.86549744 184.04873657 122.05439758 C183.984872 126.86164327 183.93877533 129.7474048 181.2964325 133.84712219 C177.73887442 136.01311029 174.96555573 136.3022769 170.91870117 136.19581604 C170.18645325 136.19654617 169.45420532 136.19727631 168.69976807 136.19802856 C166.29126629 136.19455867 163.88472426 136.15573037 161.4765625 136.11647034 C159.80220089 136.10713997 158.12782559 136.10002491 156.45344543 136.09503174 C152.05545079 136.07597925 147.65828731 136.02689431 143.26062012 135.97151184 C138.76956424 135.92028114 134.2783735 135.89750959 129.78710938 135.87232971 C120.98139024 135.81877315 112.17634551 135.73348251 103.37109375 135.62818909 C103.67996828 138.06619875 103.99304037 140.50354276 104.30859375 142.94068909 C104.39560547 143.63098206 104.48261719 144.32127502 104.57226562 145.03248596 C104.9631951 148.02961196 105.41259415 150.75269028 106.37109375 153.62818909 C108.06878906 153.70166565 108.06878906 153.70166565 109.80078125 153.77662659 C111.28257714 153.85165423 112.76434675 153.92720206 114.24609375 154.00318909 C114.99246094 154.03412659 115.73882812 154.06506409 116.5078125 154.09693909 C122.14453125 154.40162659 122.14453125 154.40162659 124.37109375 156.62818909 C124.62109375 160.12818909 124.62109375 160.12818909 124.37109375 163.62818909 C121.94546018 166.05382266 120.68345645 165.86618459 117.37376404 165.88813782 C116.68122025 165.88251831 115.98867645 165.8768988 115.27514648 165.87110901 C114.54494293 165.87300735 113.81473938 165.8749057 113.06240845 165.87686157 C110.64305974 165.88057352 108.22400963 165.86986026 105.8046875 165.85865784 C104.12842341 165.85746627 102.45215865 165.85701283 100.77589417 165.85726929 C97.26111681 165.85570375 93.74644121 165.84740811 90.23168945 165.83399963 C85.71641776 165.8169966 81.20125786 165.81318562 76.68595791 165.81394482 C73.22454248 165.81367349 69.76315171 165.80819859 66.30174446 165.80094337 C64.63629404 165.79775159 62.97084081 165.79578812 61.3053875 165.79504967 C58.98275826 165.79289222 56.66024994 165.7841614 54.33764648 165.77345276 C53.29579445 165.77413254 53.29579445 165.77413254 52.2328949 165.77482605 C47.48556901 165.74266434 47.48556901 165.74266434 46.37109375 164.62818909 C46.0979456 158.89207798 46.0979456 158.89207798 46.37109375 156.62818909 C49.38978348 153.60949935 52.94009697 154.16182029 56.99609375 154.00318909 C59.75984375 153.87943909 62.52359375 153.75568909 65.37109375 153.62818909 C65.70109375 148.01818909 66.03109375 142.40818909 66.37109375 136.62818909 C64.15559814 136.6240802 61.94010254 136.61997131 59.6574707 136.61573792 C52.33310905 136.5985317 45.00909615 136.55401568 37.68494892 136.49609852 C33.24473137 136.4618241 28.80485805 136.43671788 24.36450195 136.43263245 C20.07831116 136.42835039 15.79289691 136.39989621 11.50694847 136.35475731 C9.87275912 136.3417792 8.23847685 136.33747577 6.60424232 136.34203529 C4.31254113 136.34693951 2.0231112 136.32086243 -0.26831055 136.28761292 C-2.22355904 136.27762016 -2.22355904 136.27762016 -4.2183075 136.26742554 C-7.62890625 135.62818909 -7.62890625 135.62818909 -10.54850769 133.83465576 C-13.72759196 128.93481207 -13.32657681 124.39075624 -13.27587891 118.66529846 C-13.2846405 117.45340347 -13.2934021 116.24150848 -13.3024292 114.9928894 C-13.32064759 111.67628961 -13.31640473 108.36125241 -13.30053377 105.04474068 C-13.28785353 101.57037925 -13.29962075 98.09608348 -13.3074646 94.62171936 C-13.31655508 88.78765406 -13.30458943 82.95390549 -13.28076172 77.11988831 C-13.25355111 70.37986351 -13.26236573 63.64059498 -13.28989375 56.90058851 C-13.31260134 51.1084597 -13.31577699 45.31655824 -13.3027004 39.52439928 C-13.29491476 36.06730793 -13.29383926 32.61057179 -13.31038284 29.15350342 C-13.3275404 25.29906435 -13.30374485 21.44546882 -13.27587891 17.59107971 C-13.28600006 16.448069 -13.29612122 15.30505829 -13.30654907 14.12741089 C-13.29244995 13.07599411 -13.27835083 12.02457733 -13.26382446 10.94129944 C-13.26193933 10.03060951 -13.26005421 9.11991959 -13.25811195 8.181633 C-11.53843781 1.20284779 -6.43255521 -0.10787798 0 0 Z M1.37109375 14.62818909 C1.37109375 44.98818909 1.37109375 75.34818909 1.37109375 106.62818909 C57.14109375 106.62818909 112.91109375 106.62818909 170.37109375 106.62818909 C170.37109375 76.26818909 170.37109375 45.90818909 170.37109375 14.62818909 C114.60109375 14.62818909 58.83109375 14.62818909 1.37109375 14.62818909 Z "
    fill="#161C25" transform="translate(379.62890625,252.37181091308594)"/>
  <path
    d="M0 0 C1.25939644 -0.00430527 1.25939644 -0.00430527 2.54423523 -0.00869751 C4.31685054 -0.01073414 6.08948854 -0.00523237 7.86206055 0.00732422 C10.55504547 0.02332359 13.24651588 0.00749364 15.93945312 -0.01171875 C17.66797203 -0.00973507 19.39648999 -0.00588881 21.125 0 C21.92110184 -0.00607269 22.71720367 -0.01214539 23.53742981 -0.0184021 C29.9894718 0.06145169 35.89824058 1.03495933 40.63671875 5.7734375 C43.37274735 10.19317601 44.54691898 14.27729949 45.26733398 19.40698242 C45.43768661 20.59559372 45.60803925 21.78420502 45.78355408 23.00883484 C45.96068436 24.2859584 46.13781464 25.56308197 46.3203125 26.87890625 C46.51128518 28.21554825 46.70303519 29.55207939 46.89552307 30.88850403 C47.6061518 35.83304429 48.30442397 40.77930844 49.00024414 45.72595215 C49.58831323 49.90540894 50.18256106 54.08389155 50.785326 58.26125526 C51.06323484 60.20441862 51.33220372 62.14885394 51.60093689 64.0933075 C52.60882688 71.08950957 53.96841554 77.70617769 56.26171875 84.3984375 C58.14938965 84.43602173 58.14938965 84.43602173 60.07519531 84.47436523 C64.84658114 84.57016639 69.61787802 84.6699291 74.38916016 84.77075195 C76.4350371 84.81346103 78.48093533 84.85516487 80.52685547 84.89575195 C86.46942934 85.01401939 92.4108919 85.15315127 98.35229492 85.32049561 C100.28784366 85.37234791 102.22357392 85.41782615 104.15942383 85.45684814 C106.89751149 85.51401429 109.63383889 85.59580575 112.37109375 85.68359375 C113.18298157 85.69555283 113.99486938 85.7075119 114.83135986 85.71983337 C120.05436623 85.92156689 123.10867016 86.96114557 127.26171875 90.3984375 C130.39373293 94.74284426 130.63347195 98.15717226 129.83984375 103.28125 C128.73398523 107.33108323 126.57200615 109.63410318 123.01171875 111.7109375 C122.43421875 111.9378125 121.85671875 112.1646875 121.26171875 112.3984375 C122.08603771 119.28503359 123.09003355 126.13985348 124.109375 133 C124.47091202 135.45309422 124.83223369 137.90622019 125.19335938 140.359375 C125.75973088 144.20213549 126.32737868 148.0446881 126.89868164 151.88671875 C127.45201147 155.61141081 127.99989826 159.3368704 128.546875 163.0625 C128.80465477 164.78299057 128.80465477 164.78299057 129.06764221 166.53823853 C129.22458054 167.61310516 129.38151886 168.6879718 129.54321289 169.79541016 C129.75186729 171.20483383 129.75186729 171.20483383 129.96473694 172.64273071 C130.82229433 180.60004198 130.82229433 180.60004198 128.19921875 184.3359375 C125.26171875 186.3984375 125.26171875 186.3984375 121.63671875 186.4609375 C117.79287017 185.25083702 117.18466857 184.8237025 115.26171875 181.3984375 C114.6425687 178.56451598 114.1705372 175.85418694 113.796875 172.98828125 C113.67860855 172.15586914 113.5603421 171.32345703 113.43849182 170.46582031 C113.05609787 167.75726587 112.69014579 165.04676104 112.32421875 162.3359375 C112.06485093 160.47907841 111.80426638 158.62238887 111.54248047 156.76586914 C111.02050718 153.05683338 110.50396818 149.34710676 109.99169922 145.63671875 C109.00657483 138.52892889 107.94929522 131.43251153 106.88671875 124.3359375 C106.35046875 120.7265625 105.81421875 117.1171875 105.26171875 113.3984375 C85.46171875 112.9034375 85.46171875 112.9034375 65.26171875 112.3984375 C64.93171875 115.6984375 64.60171875 118.9984375 64.26171875 122.3984375 C64.03363744 124.25559763 63.79477534 126.11152272 63.53735352 127.96484375 C63.33693199 129.41685181 63.33693199 129.41685181 63.13246155 130.89819336 C62.91993996 132.41425171 62.91993996 132.41425171 62.703125 133.9609375 C62.55391098 135.03287354 62.40469696 136.10480957 62.2509613 137.20922852 C61.93677597 139.46156482 61.62158069 141.71376045 61.30541992 143.96582031 C60.82565677 147.38817948 60.35113366 150.81123843 59.87695312 154.234375 C59.56932859 156.43494034 59.26139615 158.63546265 58.953125 160.8359375 C58.81346817 161.84664307 58.67381134 162.85734863 58.52992249 163.89868164 C57.86596656 168.59802579 57.14840476 173.28386924 56.29663086 177.953125 C56.15237167 178.7457373 56.00811249 179.53834961 55.85948181 180.35498047 C55.26171875 182.3984375 55.26171875 182.3984375 53.01171875 185.0859375 C49.53715433 186.74425233 47.89413526 186.58292114 44.26171875 185.3984375 C42.2314923 183.82165715 41.36587236 182.96918491 40.89953613 180.41372681 C41.0657409 172.94148655 42.07837898 165.67542414 43.23046875 158.296875 C43.43289685 156.96605064 43.63466751 155.63512612 43.83581543 154.30410767 C44.36194417 150.83440611 44.89687599 147.36612 45.43377686 143.89807129 C45.98210338 140.34563383 46.52192199 136.79190453 47.0625 133.23828125 C48.12067548 126.29039366 49.18817468 119.34396848 50.26171875 112.3984375 C49.30579834 112.4698999 48.34987793 112.5413623 47.36499023 112.61499023 C39.66922175 113.16383202 32.04361922 113.5390326 24.32421875 113.4609375 C23.43798828 113.45642578 22.55175781 113.45191406 21.63867188 113.44726562 C19.51298958 113.43577545 17.38734338 113.41785945 15.26171875 113.3984375 C15.30014893 114.44427002 15.3385791 115.49010254 15.37817383 116.56762695 C15.37189177 122.68525783 14.33168255 128.6588683 13.3984375 134.69140625 C13.20578812 135.95559891 13.01313873 137.21979156 12.81465149 138.52229309 C12.40667119 141.18459246 11.99604929 143.84633095 11.58129883 146.50756836 C11.05199054 149.90850157 10.53825065 153.31158673 10.02847576 156.71549511 C9.53667794 159.9798252 9.02911681 163.24170236 8.5234375 166.50390625 C8.25136726 168.33057076 8.25136726 168.33057076 7.97380066 170.19413757 C7.79384048 171.329142 7.61388031 172.46414642 7.4284668 173.63354492 C7.2752446 174.62867599 7.1220224 175.62380707 6.9641571 176.64909363 C5.79573794 181.22228649 4.19128769 183.77872488 0.26171875 186.3984375 C-2.81308188 186.20626246 -4.94858107 186.01767848 -7.4065094 184.09030151 C-9.83283485 181.00793218 -9.04740887 177.11529408 -8.73828125 173.3984375 C-8.21446786 169.08256179 -7.52285766 164.80299241 -6.8046875 160.515625 C-6.60729477 159.30198273 -6.40990204 158.08834045 -6.20652771 156.83792114 C-5.57794641 152.98196723 -4.93962446 149.12770318 -4.30078125 145.2734375 C-3.66775105 141.41168842 -3.03668793 137.54962133 -2.40574646 133.68753052 C-2.01345383 131.29099113 -1.61953601 128.89471704 -1.22377014 126.49874878 C-0.87335544 124.37502152 -0.52694238 122.25062792 -0.18557739 120.12542725 C0.08654213 118.46642091 0.37394619 116.80970258 0.68875122 115.15826416 C1.08753665 113.12404834 1.08753665 113.12404834 1.26171875 110.3984375 C-0.73338961 107.80522832 -0.73338961 107.80522832 -2.33813477 106.16992188 C-7.20606317 100.01095265 -8.36008034 91.24309599 -9.11328125 83.6484375 C-9.34571533 81.58441592 -9.58031118 79.52063727 -9.81640625 77.45703125 C-9.95240234 76.2438623 -10.08839844 75.03069336 -10.22851562 73.78076172 C-11.21634058 65.15662259 -12.34897596 56.54920264 -13.45098877 47.93908691 C-13.85981902 44.7380459 -14.26495218 41.53655406 -14.66943359 38.33496094 C-14.92404139 36.33136594 -15.17875692 34.32778463 -15.43359375 32.32421875 C-15.60843292 30.93493919 -15.60843292 30.93493919 -15.7868042 29.51759338 C-16.30834944 25.4391524 -16.8947137 21.42489731 -17.73828125 17.3984375 C-18.30443425 11.28398514 -17.21474126 8.28427319 -13.73828125 3.3984375 C-9.33867475 -0.12022394 -5.38742968 -0.0407844 0 0 Z "
    fill="#171D26" transform="translate(353.73828125,407.6015625)"/>
  <path
    d="M0 0 C35.65332225 -0.02258423 71.30664243 -0.04049762 106.95997035 -0.05106533 C111.16463845 -0.05231611 115.36930653 -0.05361042 119.57397461 -0.05493164 C120.41108444 -0.05519395 121.24819426 -0.05545626 122.11067105 -0.05572652 C135.68323676 -0.06008346 149.25579824 -0.06797114 162.82836144 -0.0771528 C176.74446872 -0.08648868 190.66057378 -0.09205547 204.57668406 -0.09408849 C213.17073022 -0.09546386 221.76476448 -0.09981517 230.35880698 -0.10791647 C236.24388604 -0.11318312 242.12895891 -0.11480448 248.01404016 -0.11350138 C251.41459468 -0.11285787 254.81512832 -0.11387694 258.21567917 -0.11920547 C261.89375738 -0.12413514 265.57178341 -0.12300098 269.24986267 -0.12025452 C270.33641535 -0.12316736 271.42296803 -0.1260802 272.54244655 -0.12908131 C274.00845927 -0.12609474 274.00845927 -0.12609474 275.5040884 -0.12304783 C276.35428222 -0.12342755 277.20447604 -0.12380727 278.08043331 -0.1241985 C280 0 280 0 281 1 C281.25098924 4.47208807 281.18522096 7.9574062 281.1875 11.4375 C281.19974609 12.41783203 281.21199219 13.39816406 281.22460938 14.40820312 C281.22654297 15.34470703 281.22847656 16.28121094 281.23046875 17.24609375 C281.23457764 18.10904053 281.23868652 18.9719873 281.24291992 19.86108398 C281 22 281 22 279 24 C276.47802734 24.22705078 276.47802734 24.22705078 273.3359375 24.1953125 C272.21445312 24.18886719 271.09296875 24.18242187 269.9375 24.17578125 C268.761875 24.15902344 267.58625 24.14226562 266.375 24.125 C265.19164062 24.11597656 264.00828125 24.10695313 262.7890625 24.09765625 C259.85917477 24.07402812 256.9296866 24.04108514 254 24 C254.00184359 24.72391088 254.00368717 25.44782175 254.00558662 26.19366932 C254.04972391 43.79474148 254.08283621 61.39579961 254.10362434 78.99691486 C254.11394411 87.50862425 254.12801778 96.02029672 254.15087891 104.53198242 C254.17079139 111.94935114 254.18371134 119.36669313 254.18817699 126.78408784 C254.19078801 130.71282043 254.19693951 134.64147658 254.21146011 138.57018471 C254.22501023 142.26617617 254.22922788 145.96205949 254.22621536 149.65807343 C254.22703004 151.66496151 254.23780511 153.67183776 254.24884033 155.67869568 C254.246091 156.86921539 254.24334167 158.05973511 254.24050903 159.28633118 C254.24235262 160.32334828 254.24419621 161.36036539 254.24609566 162.42880726 C254 165 254 165 252 168 C249.22947819 168.92350727 247.43311242 169.16329585 244.5625 169.1875 C243.41974609 169.20876953 243.41974609 169.20876953 242.25390625 169.23046875 C239.7267408 168.97205842 238.14574968 168.34404101 236 167 C234.6760418 164.3520836 234.87711107 162.37293043 234.87974548 159.40658569 C234.87767924 157.62658708 234.87767924 157.62658708 234.87557125 155.81062889 C234.87916936 154.49688601 234.88276747 153.18314312 234.88647461 151.82958984 C234.88678082 150.41761083 234.88664767 149.00563167 234.88610935 147.59365273 C234.88588312 143.80430961 234.89168895 140.01499792 234.89871979 136.22566223 C234.90440471 132.67298277 234.90468236 129.12031105 234.90539551 125.56762695 C234.9106478 115.17008045 234.92460889 104.77253983 234.9375 94.375 C234.958125 71.15125 234.97875 47.9275 235 24 C158.44 24 81.88 24 3 24 C2.01 16.08 1.02 8.16 0 0 Z "
    fill="#171D26" transform="translate(412,425)"/>
  <path
    d="M0 0 C3.2506246 2.77259157 4.95512972 4.88215595 5.33984375 9.25390625 C5.38981556 13.06842141 5.33846189 16.17211432 4.125 19.8125 C4.57302979 20.25529297 5.02105957 20.69808594 5.48266602 21.15429688 C7.55370096 23.20426683 9.62060697 25.25835433 11.6875 27.3125 C12.39197266 28.00859375 13.09644531 28.7046875 13.82226562 29.421875 C17.89194723 33.47280231 21.74208307 37.62807624 25.48413086 41.98193359 C27.00319773 43.67661644 28.56839484 45.22254484 30.25 46.75390625 C31.19875 47.61886719 32.1475 48.48382813 33.125 49.375 C34.5790625 50.67630859 34.5790625 50.67630859 36.0625 52.00390625 C38.125 54.8125 38.125 54.8125 38.03125 57.71362305 C37.0019391 63.41900606 34.7289582 68.80123192 32.6875 74.203125 C32.24736572 75.38469177 31.80723145 76.56625854 31.35375977 77.78363037 C30.18863659 80.90788926 29.01755837 84.02977599 27.84338379 87.15063477 C26.64858788 90.33039577 25.46118909 93.51291495 24.2734375 96.6953125 C22.93859887 100.27075622 21.60277353 103.84579758 20.26196289 107.41900635 C19.66629517 109.0064566 19.66629517 109.0064566 19.05859375 110.62597656 C18.70853271 111.55750549 18.35847168 112.48903442 17.99780273 113.4487915 C17.34182292 115.22530411 16.72385779 117.01592663 16.125 118.8125 C17.10339844 118.76029297 17.10339844 118.76029297 18.1015625 118.70703125 C23.53238101 118.53882006 27.52608913 118.55961183 32.125 121.8125 C34.44703845 124.28434738 35.11635371 125.89887532 35.1484375 129.2890625 C34.6 136.3375 34.6 136.3375 32.125 138.8125 C29.73400879 139.07319641 29.73400879 139.07319641 26.69726562 139.0871582 C25.56268921 139.09669022 24.42811279 139.10622223 23.25915527 139.11604309 C22.02894653 139.11513168 20.79873779 139.11422028 19.53125 139.11328125 C17.64484802 139.11970894 17.64484802 139.11970894 15.72033691 139.12626648 C13.05706882 139.13201857 10.3941872 139.13343483 7.73095703 139.12817383 C4.31418436 139.12237458 0.89795296 139.13931858 -2.51873016 139.1625185 C-5.77289976 139.18077032 -9.02703838 139.1770712 -12.28125 139.17578125 C-13.51145874 139.184991 -14.74166748 139.19420074 -16.00915527 139.20368958 C-17.14373169 139.19746078 -18.27830811 139.19123199 -19.44726562 139.18481445 C-20.95045349 139.18575859 -20.95045349 139.18575859 -22.48400879 139.1867218 C-23.27303589 139.06322861 -24.06206299 138.93973541 -24.875 138.8125 C-27.7038298 134.5692553 -27.52768001 130.79515471 -26.875 125.8125 C-24.74685006 122.16424297 -22.73690968 120.39079282 -18.875 118.8125 C-16.49316406 118.58544922 -16.49316406 118.58544922 -13.890625 118.6171875 C-12.48876953 118.62685547 -12.48876953 118.62685547 -11.05859375 118.63671875 C-9.60646484 118.66185547 -9.60646484 118.66185547 -8.125 118.6875 C-6.64966797 118.70103516 -6.64966797 118.70103516 -5.14453125 118.71484375 C-2.72110593 118.73837215 -0.29817778 118.77124632 2.125 118.8125 C2.25455078 118.25191895 2.38410156 117.69133789 2.51757812 117.11376953 C5.05297102 107.01678055 8.92095569 97.39810265 12.625 87.6875 C13.6455237 85.00142743 14.66455919 82.3148036 15.6817627 79.62747192 C16.31068197 77.96703603 16.94163773 76.30736938 17.57507324 74.64865112 C19.56362315 69.41267427 21.39369993 64.13900665 23.125 58.8125 C22.45855469 58.15652832 21.79210937 57.50055664 21.10546875 56.82470703 C18.64150471 54.39477326 16.1820658 51.96043959 13.72558594 49.52294922 C12.6603174 48.46775491 11.59326303 47.41436036 10.52441406 46.36279297 C8.99073784 44.85330273 7.46354432 43.33751301 5.9375 41.8203125 C5.01582031 40.90910645 4.09414063 39.99790039 3.14453125 39.05908203 C1.125 36.8125 1.125 36.8125 1.125 34.8125 C0.465 34.8125 -0.195 34.8125 -0.875 34.8125 C-1.02195312 35.34875 -1.16890625 35.885 -1.3203125 36.4375 C-2.96432599 42.18209888 -4.90911627 47.78097992 -7 53.375 C-7.26570801 54.08978516 -7.53141602 54.80457031 -7.80517578 55.54101562 C-9.74899657 60.68649657 -9.74899657 60.68649657 -10.875 61.8125 C-13.56319945 62.37148287 -15.28632517 62.16418428 -17.65185547 60.75097656 C-19.75313787 59.19976532 -21.78638083 57.58569376 -23.8125 55.9375 C-25.32788178 54.73892906 -26.8448326 53.54233945 -28.36328125 52.34765625 C-29.11947754 51.74969238 -29.87567383 51.15172852 -30.65478516 50.53564453 C-33.86466773 48.04440292 -37.17128575 45.70368892 -40.5 43.375 C-45.18445484 40.07948306 -49.62559125 36.65720316 -53.875 32.8125 C-53.51827947 30.06756577 -53.03735083 28.96838403 -51.01171875 27.0234375 C-50.20347656 26.41757812 -49.39523437 25.81171875 -48.5625 25.1875 C-45.06320443 22.52184546 -41.6896433 19.79191625 -38.38818359 16.88427734 C-33.45819785 12.57789741 -29.17766853 9.81919663 -22.99609375 7.7421875 C-19.55812988 6.23530831 -18.0788537 3.79418442 -15.875 0.8125 C-10.95718567 -2.26242812 -5.26939528 -2.17648935 0 0 Z "
    fill="#171D26" transform="translate(634.875,278.1875)"/>
  <path
    d="M0 0 C6.13217144 3.6870651 10.11863221 9.97031718 12.09375 16.75390625 C13.98491453 27.83297843 13.18651938 38.87679217 7.75 48.8125 C3.11903672 54.50196917 -1.3839719 57.9470045 -8.7578125 58.75390625 C-14.91353974 59.04569149 -19.27158277 57.8585206 -24.4375 54.5 C-24.9325 54.005 -24.9325 54.005 -25.4375 53.5 C-25.4375 62.08 -25.4375 70.66 -25.4375 79.5 C-30.7175 79.5 -35.9975 79.5 -41.4375 79.5 C-41.4375 53.1 -41.4375 26.7 -41.4375 -0.5 C-36.8175 -0.5 -32.1975 -0.5 -27.4375 -0.5 C-26.7775 0.82 -26.1175 2.14 -25.4375 3.5 C-24.674375 2.860625 -23.91125 2.22125 -23.125 1.5625 C-17.01038297 -3.13011307 -6.97110156 -3.06674429 0 0 Z "
    fill="#F5F3EE" transform="translate(361.4375,709.5)"/>
  <path
    d="M0 0 C3.4039421 1.86667793 5.48143891 4.13383205 7.69140625 7.24609375 C8.50544922 6.50552734 8.50544922 6.50552734 9.3359375 5.75 C10.05136719 5.10933594 10.76679687 4.46867188 11.50390625 3.80859375 C12.21160156 3.17050781 12.91929687 2.53242187 13.6484375 1.875 C18.28684041 -1.82330595 24.05116926 -1.18340706 29.69140625 -0.75390625 C35.73976265 1.18613259 39.79526354 5.72016917 42.76025391 11.23364258 C44.11476606 15.61574155 43.93696968 19.79975244 43.88671875 24.359375 C43.88388885 25.32892624 43.88105896 26.29847748 43.87814331 27.29740906 C43.86697616 30.3845978 43.84187777 33.47149314 43.81640625 36.55859375 C43.80637198 38.65559476 43.79724691 40.75260033 43.7890625 42.84960938 C43.76704813 47.98188335 43.73254196 53.11393885 43.69140625 58.24609375 C38.41140625 58.24609375 33.13140625 58.24609375 27.69140625 58.24609375 C27.68206055 57.05532227 27.67271484 55.86455078 27.66308594 54.63769531 C27.62319238 50.21674283 27.55743552 45.79648672 27.48388672 41.37597656 C27.45567339 39.46330719 27.43446064 37.55052115 27.42041016 35.63769531 C27.39898544 32.88676202 27.35233885 30.137232 27.30078125 27.38671875 C27.29955261 26.53241272 27.29832397 25.67810669 27.29705811 24.7979126 C27.20251888 20.9598517 27.15091147 18.8876252 24.87207031 15.70605469 C21.6576617 13.55399877 19.46734651 13.70667371 15.69140625 14.24609375 C13.32643186 16.1131788 12.0310991 17.56670806 10.69140625 20.24609375 C10.53434294 23.08817401 10.43291055 25.90946682 10.375 28.75390625 C10.3542189 29.59452606 10.33343781 30.43514587 10.31202698 31.30123901 C10.24655186 33.9911061 10.18765605 36.68107218 10.12890625 39.37109375 C10.08571909 41.19271864 10.04210473 43.01433346 9.99804688 44.8359375 C9.89087257 49.30588769 9.7895994 53.77593761 9.69140625 58.24609375 C4.74140625 58.24609375 -0.20859375 58.24609375 -5.30859375 58.24609375 C-5.32317627 57.09085205 -5.33775879 55.93561035 -5.3527832 54.74536133 C-5.41086197 50.44931463 -5.48809425 46.15378681 -5.57104492 41.8581543 C-5.60424924 40.00081825 -5.63229516 38.14338238 -5.6550293 36.28588867 C-5.68865817 33.61203577 -5.74097749 30.93909382 -5.796875 28.265625 C-5.80326492 27.43835403 -5.80965485 26.61108307 -5.8162384 25.75874329 C-5.93372431 21.12658269 -6.30959602 18.00897412 -9.30859375 14.24609375 C-12.19721084 12.8017852 -14.10507076 12.86920869 -17.30859375 13.24609375 C-20.03652812 15.24557557 -21.97876922 16.85361709 -22.78189087 20.24429321 C-22.9832612 22.66915655 -23.02689387 25.05117929 -23.015625 27.484375 C-23.03074631 28.36514206 -23.04586761 29.24590912 -23.06144714 30.15336609 C-23.10429665 32.95536963 -23.11315931 35.75629533 -23.12109375 38.55859375 C-23.14424025 40.46291922 -23.16960591 42.36721911 -23.19726562 44.27148438 C-23.26009072 48.92978266 -23.29244744 53.58740925 -23.30859375 58.24609375 C-28.58859375 58.24609375 -33.86859375 58.24609375 -39.30859375 58.24609375 C-39.30859375 39.10609375 -39.30859375 19.96609375 -39.30859375 0.24609375 C-34.68859375 0.24609375 -30.06859375 0.24609375 -25.30859375 0.24609375 C-24.64859375 1.89609375 -23.98859375 3.54609375 -23.30859375 5.24609375 C-22.35984375 4.44171875 -21.41109375 3.63734375 -20.43359375 2.80859375 C-14.79004886 -1.97615083 -7.02308359 -2.2934943 0 0 Z "
    fill="#F6F4EF" transform="translate(863.30859375,708.75390625)"/>
  <path
    d="M0 0 C5.28 0 10.56 0 16 0 C19.96171854 12.18990321 22.9405459 24.55358446 26 37 C28.97 25.12 31.94 13.24 35 1 C39.29 1 43.58 1 48 1 C50.91140586 8.16653751 52.79300037 15.50901397 54.6875 23 C55.00783203 24.25167969 55.32816406 25.50335937 55.65820312 26.79296875 C56.44277346 29.86099004 57.22325436 32.92999014 58 36 C58.2673999 34.94498291 58.5347998 33.88996582 58.81030273 32.80297852 C59.80012141 28.90152748 60.79449921 25.00125071 61.7902832 21.10131836 C62.22122337 19.410882 62.65091424 17.72012665 63.0793457 16.02905273 C63.69417044 13.60316047 64.31342911 11.17843811 64.93359375 8.75390625 C65.12529648 7.99348526 65.31699921 7.23306427 65.51451111 6.44960022 C66.88612829 1.11387171 66.88612829 1.11387171 68 0 C70.53049402 -0.07313567 73.03304837 -0.09247527 75.5625 -0.0625 C76.62887695 -0.05573242 76.62887695 -0.05573242 77.71679688 -0.04882812 C79.47790013 -0.03700864 81.23896036 -0.01907263 83 0 C81.69373124 7.22410214 79.8910324 14.19574935 77.77734375 21.22265625 C77.47180069 22.24934921 77.16625763 23.27604218 76.85145569 24.33384705 C76.21067415 26.48322195 75.56769629 28.63194321 74.92260742 30.7800293 C73.93142634 34.08273801 72.94863934 37.38786385 71.96679688 40.69335938 C71.34163794 42.78660537 70.71600419 44.87970962 70.08984375 46.97265625 C69.79504623 47.96419205 69.50024872 48.95572784 69.19651794 49.97731018 C68.92275833 50.88593307 68.64899872 51.79455597 68.36694336 52.73071289 C68.12648788 53.53328018 67.88603241 54.33584747 67.63829041 55.16273499 C67 57 67 57 66 58 C61.38 58 56.76 58 52 58 C47.05 41.665 47.05 41.665 42 25 C38.7 35.89 35.4 46.78 32 58 C27.38 58 22.76 58 18 58 C15.14330111 51.09201112 12.70168733 44.18640015 10.546875 37.03125 C10.24179016 36.02912476 9.93670532 35.02699951 9.62237549 33.99450684 C8.98508086 31.89769168 8.34991115 29.80022959 7.71679688 27.70214844 C6.7437871 24.47942213 5.76301411 21.25913143 4.78125 18.0390625 C4.16100259 15.9949299 3.54119484 13.95066383 2.921875 11.90625 C2.62819031 10.94174927 2.33450562 9.97724854 2.03192139 8.98352051 C1.76454163 8.0949939 1.49716187 7.20646729 1.22167969 6.29101562 C0.98503601 5.50843384 0.74839233 4.72585205 0.50457764 3.91955566 C0 2 0 2 0 0 Z "
    fill="#F8F6F2" transform="translate(578,709)"/>
  <path
    d="M0 0 C7.33900888 3.91954434 11.19862376 9.82505396 13.58203125 17.65625 C15.57833965 26.82769584 14.27972354 37.1894717 9.8671875 45.4921875 C5.90943388 51.22931264 0.71344667 54.93536153 -5.87890625 57.1328125 C-14.28645907 57.74775341 -22.77367618 58.30530875 -29.87890625 53.1328125 C-37.08614841 46.77721976 -40.57088096 40.63392236 -41.1875 31.1015625 C-41.51005244 23.13293086 -41.50212858 15.95278333 -36.87890625 9.1328125 C-36.44320312 8.48957031 -36.0075 7.84632813 -35.55859375 7.18359375 C-27.01426382 -3.95204935 -12.31033939 -5.6332113 0 0 Z "
    fill="#F8F6F1" transform="translate(803.87890625,710.8671875)"/>
  <path
    d="M0 0 C5.90117293 3.9690852 9.55297338 8.92803107 11.63671875 15.7734375 C12.06828421 18.88913813 12.11338925 21.94383703 12.07421875 25.0859375 C12.06737061 25.92535889 12.06052246 26.76478027 12.0534668 27.62963867 C11.81468113 36.85642421 9.40591209 44.31193477 2.63671875 50.7734375 C-5.73027265 55.87566167 -13.72711087 56.6088313 -23.36328125 55.7734375 C-29.89548124 53.95326719 -34.2010533 50.60055663 -38.109375 45.12890625 C-41.51700514 38.72765711 -42.89890833 33.08497915 -42.80078125 25.8359375 C-42.79248291 25.04396973 -42.78418457 24.25200195 -42.77563477 23.43603516 C-42.60319154 17.47968656 -41.8348633 12.7490284 -38.36328125 7.7734375 C-37.63431641 6.70029297 -37.63431641 6.70029297 -36.890625 5.60546875 C-27.5663126 -6.4962984 -12.70454145 -7.07468583 0 0 Z "
    fill="#F8F6F1" transform="translate(745.36328125,712.2265625)"/>
  <path
    d="M0 0 C6.23697613 4.7195509 9.56246519 10.68739557 12 18 C12.72031486 28.29696003 12.87069581 38.41531249 6.45703125 47.0859375 C4.74588147 48.94196724 3.00650939 50.47123094 1 52 C0.44957031 52.433125 -0.10085938 52.86625 -0.66796875 53.3125 C-7.22835118 57.48333916 -15.55882101 56.76634181 -23 56 C-26.08997829 55.10276186 -28.41575368 53.89203749 -31 52 C-31.886875 51.443125 -32.77375 50.88625 -33.6875 50.3125 C-39.92272706 44.07727294 -43.28015484 35.50475609 -43.3125 26.75 C-43.07646807 16.35279331 -40.87691331 9.70006764 -33.51953125 2.140625 C-23.81793045 -6.10197537 -10.82228774 -6.26067499 0 0 Z "
    fill="#F8F6F2" transform="translate(566,712)"/>
  <path
    d="M0 0 C4.95 0 9.9 0 15 0 C15.33 9.57 15.66 19.14 16 29 C18.97 26.525 18.97 26.525 22 24 C27.98124663 22.00625112 34.67434022 22.00091424 40.4375 24.6875 C45.07942396 27.37393043 47.90864297 31.10508464 50 36 C50.24050903 38.22735596 50.24050903 38.22735596 50.22705078 40.67675781 C50.22689972 41.59741028 50.22674866 42.51806274 50.22659302 43.46661377 C50.21627045 44.45216248 50.20594788 45.43771118 50.1953125 46.453125 C50.1924826 47.46848328 50.18965271 48.48384155 50.18673706 49.52996826 C50.17555001 52.77009916 50.15044791 56.00995276 50.125 59.25 C50.1149683 61.44791267 50.10584278 63.64582968 50.09765625 65.84375 C50.07561546 71.22927337 50.04109552 76.61458968 50 82 C45.05 82 40.1 82 35 82 C34.97494385 80.77369873 34.9498877 79.54739746 34.92407227 78.28393555 C34.82996946 73.7384173 34.72975567 69.19305083 34.62768555 64.64770508 C34.58434759 62.67964221 34.54267168 60.71154202 34.50268555 58.7434082 C34.44495555 55.9160639 34.38126884 53.08890729 34.31640625 50.26171875 C34.29969376 49.38037766 34.28298126 48.49903656 34.26576233 47.59098816 C34.2358445 46.3600518 34.2358445 46.3600518 34.20532227 45.10424805 C34.18200584 44.02169991 34.18200584 44.02169991 34.15821838 42.9172821 C34.05804743 40.77891856 34.05804743 40.77891856 33 38 C28.56670214 36.04934894 22.43031277 36.52322908 18 38 C15.44143066 42.40248155 15.65500243 47.07326018 15.5859375 52.01953125 C15.56657135 52.87810226 15.5472052 53.73667328 15.5272522 54.6212616 C15.46768444 57.35157474 15.42116266 60.08193057 15.375 62.8125 C15.33679921 64.66863773 15.29774625 66.52475812 15.2578125 68.38085938 C15.16200173 72.92043144 15.07788679 77.46008646 15 82 C10.05 82 5.1 82 0 82 C0 54.94 0 27.88 0 0 Z "
    fill="#FAF8F3" transform="translate(466,685)"/>
  <path
    d="M0 0 C8.02843272 4.85051143 11.75596543 9.8363617 14 18.8125 C14 23.7625 14 28.7125 14 33.8125 C2.12 33.8125 -9.76 33.8125 -22 33.8125 C-19.094256 42.39455967 -19.094256 42.39455967 -15.125 44.875 C-11.71990326 45.89652902 -9.51730392 46.41119003 -6 45.8125 C-3.35412766 43.41664714 -3.35412766 43.41664714 -1 40.8125 C1.64229752 39.67846673 2.79649203 39.75113926 5.578125 40.58984375 C6.45984375 40.97269531 7.3415625 41.35554687 8.25 41.75 C9.58804688 42.32041016 9.58804688 42.32041016 10.953125 42.90234375 C11.62859375 43.20269531 12.3040625 43.50304687 13 43.8125 C11.92375602 48.8349719 9.97069255 51.39949099 6.046875 54.48828125 C-1.12450289 59.12777954 -9.03050271 59.8392938 -17.31640625 58.4140625 C-24.53129987 56.48172577 -30.55124232 51.86677925 -34.41796875 45.46484375 C-38.74348119 36.11111829 -39.6408001 25.76135351 -36.3125 15.9375 C-33.09555427 8.13612639 -28.44958219 3.7243099 -21 -0.1875 C-14.79851231 -2.25466256 -6.15042593 -2.45185899 0 0 Z "
    fill="#F7F5F1" transform="translate(203,709.1875)"/>
  <path
    d="M0 0 C4.95 0 9.9 0 15 0 C15.01401855 1.78615723 15.01401855 1.78615723 15.02832031 3.60839844 C15.06821387 8.02935092 15.13397073 12.44960703 15.20751953 16.87011719 C15.23573286 18.78278656 15.25694561 20.6955726 15.27099609 22.60839844 C15.29242081 25.35933173 15.3390674 28.10886175 15.390625 30.859375 C15.39185364 31.71368103 15.39308228 32.56798706 15.39434814 33.44818115 C15.5031228 38.34720181 15.5031228 38.34720181 17.89941406 42.53808594 C20.31244084 44.21744488 21.5814816 44.5399797 24.5 44.5 C25.2528125 44.5103125 26.005625 44.520625 26.78125 44.53125 C30.00384242 43.75964336 31.00630943 42.66406262 33 40 C33.61767133 36.95987463 33.60492441 33.95399112 33.609375 30.859375 C33.62591125 29.97719299 33.64244751 29.09501099 33.65948486 28.18609619 C33.70799194 25.3739935 33.72934155 22.56243168 33.75 19.75 C33.77815746 17.84111858 33.80808457 15.93226239 33.83984375 14.0234375 C33.91375154 9.34900286 33.96330955 4.67486894 34 0 C38.95 0 43.9 0 49 0 C49 19.14 49 38.28 49 58 C45.04 58 41.08 58 37 58 C36.67 56.35 36.34 54.7 36 53 C34.948125 53.928125 34.948125 53.928125 33.875 54.875 C27.73053623 59.41656018 21.41922773 59.68758164 14 59 C7.9516436 57.05996116 3.89614271 52.52592458 0.93115234 47.01245117 C-0.42335981 42.6303522 -0.24556343 38.44634131 -0.1953125 33.88671875 C-0.19106766 32.43239189 -0.19106766 32.43239189 -0.18673706 30.94868469 C-0.17556991 27.86149595 -0.15047152 24.77460061 -0.125 21.6875 C-0.11496573 19.59049899 -0.10584066 17.49349342 -0.09765625 15.39648438 C-0.07564188 10.2642104 -0.04113571 5.1321549 0 0 Z "
    fill="#F9F7F2" transform="translate(262,709)"/>
  <path
    d="M0 0 C5.10152448 4.02058131 6.26457721 8.05962699 7.51171875 14.19140625 C2.89171875 14.52140625 -1.72828125 14.85140625 -6.48828125 15.19140625 C-7.47828125 13.54140625 -8.46828125 11.89140625 -9.48828125 10.19140625 C-12.8992304 9.02555434 -12.8992304 9.02555434 -16.48828125 9.19140625 C-18.90951315 10.48249335 -18.90951315 10.48249335 -20.48828125 12.19140625 C-20.53995652 14.61407711 -20.53995652 14.61407711 -19.48828125 17.19140625 C-16.25259123 18.98901181 -13.08717419 20.00084941 -9.56640625 21.12109375 C3.44351336 25.2959187 3.44351336 25.2959187 7.38671875 30.81640625 C9.10035881 35.95732643 9.57134474 41.03647462 7.8203125 46.25 C5.10012545 51.54241413 1.15506799 54.15867319 -4.2578125 56.2734375 C-12.30617034 58.56045575 -21.24031649 58.31023171 -28.71484375 54.40625 C-31.90249858 52.22263623 -33.78420241 49.59956393 -35.48828125 46.19140625 C-35.52850516 43.85841965 -35.53148372 41.52433959 -35.48828125 39.19140625 C-29.05328125 38.69640625 -29.05328125 38.69640625 -22.48828125 38.19140625 C-21.97265625 39.16078125 -21.45703125 40.13015625 -20.92578125 41.12890625 C-18.73681089 44.50576797 -18.73681089 44.50576797 -14.92578125 45.12890625 C-11.50492837 45.38218943 -11.50492837 45.38218943 -8.48828125 44.19140625 C-8.15828125 41.88140625 -7.82828125 39.57140625 -7.48828125 37.19140625 C-11.56738213 35.01098596 -15.39169915 33.58907623 -19.86328125 32.44140625 C-26.04301325 30.6171833 -30.24051095 28.0357735 -34.48828125 23.19140625 C-36.74423776 18.67949323 -36.17671748 13.06166585 -35.48828125 8.19140625 C-33.043778 3.49099643 -28.85746311 -0.63969392 -23.765625 -2.40625 C-15.90753563 -3.79455738 -6.98876093 -4.35092058 0 0 Z "
    fill="#F8F6F1" transform="translate(152.48828125,710.80859375)"/>
  <path
    d="M0 0 C2.9036113 1.99508176 4.36305058 4.10667569 5.84765625 7.26953125 C5.90326146 8.93527008 5.912469 10.60412527 5.84765625 12.26953125 C4.2442407 12.6064591 2.6398907 12.93894218 1.03515625 13.26953125 C0.14183594 13.45515625 -0.75148438 13.64078125 -1.671875 13.83203125 C-4.15234375 14.26953125 -4.15234375 14.26953125 -7.15234375 14.26953125 C-7.81234375 12.94953125 -8.47234375 11.62953125 -9.15234375 10.26953125 C-12.78234375 10.26953125 -16.41234375 10.26953125 -20.15234375 10.26953125 C-19.9710456 13.70746464 -19.9710456 13.70746464 -19.15234375 17.26953125 C-16.14092268 19.30749295 -12.7886987 19.91630628 -9.27734375 20.70703125 C-1.40106395 22.64021293 3.01392201 24.7785167 7.84765625 31.26953125 C9.82313618 35.22049112 9.2807295 39.96319725 8.84765625 44.26953125 C6.17140751 49.82789401 1.86621392 54.03623483 -3.88671875 56.38671875 C-11.0428667 58.32127549 -19.99083117 58.76791846 -26.83984375 55.58203125 C-30.02456346 53.59504308 -32.27509602 51.57348726 -34.15234375 48.26953125 C-34.74115735 45.5670278 -34.96420857 43.0445251 -35.15234375 40.26953125 C-30.97496901 38.6781504 -27.6207359 38.05675067 -23.15234375 38.26953125 C-22.92546875 39.05328125 -22.69859375 39.83703125 -22.46484375 40.64453125 C-21.38069964 43.41137346 -21.38069964 43.41137346 -18.90234375 44.58203125 C-15.78714882 45.36082998 -13.35107229 45.60982152 -10.15234375 45.26953125 C-7.80972767 43.89026352 -7.80972767 43.89026352 -6.15234375 42.26953125 C-6.48234375 40.28953125 -6.81234375 38.30953125 -7.15234375 36.26953125 C-8.44327508 35.82986623 -9.73515211 35.39297826 -11.02734375 34.95703125 C-11.8471875 34.67859375 -12.66703125 34.40015625 -13.51171875 34.11328125 C-15.23585641 33.56237336 -16.97638943 33.05977417 -18.73046875 32.61328125 C-25.33949577 30.91034177 -30.63179587 28.363307 -34.31640625 22.37890625 C-36.08527381 17.91540867 -35.97444136 12.7404951 -34.46484375 8.203125 C-31.7160036 2.90015421 -27.75421088 0.5085156 -22.52734375 -1.98046875 C-14.7572637 -3.70715321 -7.1744409 -3.68487618 0 0 Z "
    fill="#F7F5F1" transform="translate(450.15234375,710.73046875)"/>
  <path
    d="M0 0 C0 5.94 0 11.88 0 18 C3.96 18 7.92 18 12 18 C12 21.96 12 25.92 12 30 C8.04 30 4.08 30 0 30 C0.11814126 34.37844408 0.24238169 38.75665929 0.37231445 43.13476562 C0.41566589 44.62462641 0.45734084 46.11453695 0.49731445 47.60449219 C0.55501215 49.74429327 0.61870755 51.88384385 0.68359375 54.0234375 C0.72025146 55.31169434 0.75690918 56.59995117 0.79467773 57.92724609 C0.79530675 60.9127682 0.79530675 60.9127682 2 63 C5.65149561 63.60383547 9.30350275 63.74506916 13 64 C13 67.96 13 71.92 13 76 C7.06501307 77.48374673 -0.22110003 78.43484548 -6.078125 76.2109375 C-7.625 75.1875 -7.625 75.1875 -10 73 C-10.5775 72.566875 -11.155 72.13375 -11.75 71.6875 C-15.28258068 66.91851609 -15.28118256 60.80181583 -15.1953125 55.09765625 C-15.1924826 54.3750914 -15.18965271 53.65252655 -15.18673706 52.9080658 C-15.17564386 50.62603384 -15.15056088 48.34441103 -15.125 46.0625 C-15.11495611 44.50456301 -15.10583274 42.94661979 -15.09765625 41.38867188 C-15.07574033 37.59229301 -15.04128738 33.7962156 -15 30 C-17.97 30 -20.94 30 -24 30 C-24 26.04 -24 22.08 -24 18 C-21.03 18 -18.06 18 -15 18 C-15 12.39 -15 6.78 -15 1 C-9.74364995 -0.05127001 -5.33678117 -0.07115708 0 0 Z "
    fill="#F8F6F1" transform="translate(243,691)"/>
  <path
    d="M0 0 C4.62 0 9.24 0 14 0 C15.96822886 1.96822886 15.66248381 5.34808709 16 8 C16.7425 7.05125 17.485 6.1025 18.25 5.125 C20.24478424 2.57610903 21.957166 1.16343653 25 0 C28.02792822 -0.25065631 30.95441028 -0.08957617 34 0 C34 4.62 34 9.24 34 14 C31.69 14 29.38 14 27 14 C24.68838863 14.58184385 24.68838863 14.58184385 22.75 15.625 C21.78320312 16.07746094 21.78320312 16.07746094 20.796875 16.5390625 C17.1464965 19.50697893 16.08583024 23.2452173 15.56762695 27.80224609 C15.52669394 29.20896304 15.5008977 30.6161817 15.48828125 32.0234375 C15.47033005 32.76961334 15.45237885 33.51578918 15.43388367 34.28457642 C15.38006895 36.6479949 15.34597933 39.01121486 15.3125 41.375 C15.27930128 42.98570454 15.24480928 44.59638298 15.20898438 46.20703125 C15.1219434 50.13804479 15.06163395 54.0681791 15 58 C10.05 58 5.1 58 0 58 C0 38.86 0 19.72 0 0 Z "
    fill="#F9F7F2" transform="translate(666,709)"/>
  <path
    d="M0 0 C115.5 0.33 231 0.66 350 1 C348.68 1.66 347.36 2.32 346 3 C345.67 3.33 345.34 3.66 345 4 C343.20159951 4.09747419 341.39932091 4.12371414 339.59828091 4.12304783 C337.82921278 4.1260344 337.82921278 4.1260344 336.0244059 4.12908131 C334.71217821 4.12616847 333.39995053 4.12325563 332.04795837 4.12025452 C330.6529126 4.1206901 329.2578669 4.12156476 327.86282164 4.12284368 C324.01133869 4.12509126 320.15988328 4.12106379 316.30840385 4.11606562 C312.16182508 4.11176505 308.01524798 4.11320726 303.8686676 4.1139679 C296.6784573 4.11449338 289.48825604 4.11134402 282.29804802 4.10573006 C271.90209112 4.09761838 261.50613862 4.09500018 251.1101789 4.09374207 C234.24524373 4.09155102 217.3803134 4.08488952 200.51538086 4.07543945 C184.12833683 4.06626669 167.74129412 4.05918519 151.35424805 4.05493164 C150.34490627 4.05466892 149.33556448 4.05440619 148.29563659 4.05413551 C143.23229115 4.05283051 138.16894569 4.0515668 133.10560024 4.05032361 C91.0703968 4.03994936 49.03519868 4.02232963 7 4 C7 3.34 7 2.68 7 2 C4.69 1.67 2.38 1.34 0 1 C0 0.67 0 0.34 0 0 Z "
    fill="#292D33" transform="translate(335,630)"/>
  <path
    d="M0 0 C3.59444956 0.80384963 5.03099138 2.55341088 7.1484375 5.48046875 C10.5194446 11.29254996 11.02611883 16.83107865 10.1484375 23.48046875 C8.69636592 27.81532951 6.68657488 31.52051479 3.1484375 34.48046875 C-1.64465015 35.65909686 -3.67454314 36.03566656 -8.1640625 33.91796875 C-12.98586186 29.54470886 -14.60678375 24.60139787 -15.1015625 18.29296875 C-14.7032702 12.21901114 -13.20407642 7.42967999 -9.7265625 2.41796875 C-6.26883959 0.08776418 -4.10597123 -0.25236036 0 0 Z "
    fill="#161C25" transform="translate(552.8515625,720.51953125)"/>
  <path
    d="M0 0 C3.52025479 2.73878744 5.59750032 5.79250097 7 10 C7.64449808 18.31508177 7.73579523 24.96396138 3 32 C-1.04014033 34.69342689 -4.25629863 34.65977537 -9 34 C-12.84698231 31.90924874 -14.94635719 29.31469199 -16.4921875 25.18359375 C-18.1508725 18.05124825 -17.93602672 10.90801507 -14.12109375 4.55859375 C-10.53443585 -0.42773553 -5.92276244 -1.46532012 0 0 Z "
    fill="#161C25" transform="translate(795,721)"/>
  <path
    d="M0 0 C3.81741625 2.12078681 5.9436798 4.69638529 7.49609375 8.8125 C9.19019113 16.1667212 8.81036336 23.46794852 5 30 C3.4375 32.4375 3.4375 32.4375 1 34 C-2.50243972 34.74750865 -5.50787907 34.83040986 -9 34 C-12.86711327 31.15585056 -15.18229824 27.73223146 -16 23 C-16.6538247 15.49709355 -16.51017309 9.24846897 -12 3 C-8.75182336 -0.71220187 -4.6673276 -0.81817695 0 0 Z "
    fill="#161C25" transform="translate(734,721)"/>
  <path
    d="M0 0 C3.57623788 1.9137306 5.69762236 4.09286708 7 8 C7.14880933 10.78445155 7.23107 13.52742385 7.25 16.3125 C7.270625 17.05951172 7.29125 17.80652344 7.3125 18.57617188 C7.35274711 24.30635428 6.262981 28.48557667 2.3125 32.875 C-1.12408403 34.54685169 -4.31260801 34.77852806 -8 34 C-11.0190434 32.24700706 -13.41511201 30.16977599 -15 27 C-15.29259649 23.5691548 -15.27791989 20.12937345 -15.3125 16.6875 C-15.34150391 15.73681641 -15.37050781 14.78613281 -15.40039062 13.80664062 C-15.44076288 9.36258682 -15.4611984 6.75598501 -13.10546875 2.89453125 C-9.13398761 -0.67906495 -5.16626459 -0.78880885 0 0 Z "
    fill="#151B24" transform="translate(351,721)"/>
  <path d="M0 0 C8.58 0 17.16 0 26 0 C26 3.96 26 7.92 26 12 C17.42 12 8.84 12 0 12 C0 8.04 0 4.08 0 0 Z " fill="#FBF8F2"
        transform="translate(382,730)"/>
  <path
    d="M0 0 C2.24700861 2.24700861 2.93270437 3.81863599 3.11352539 6.99291992 C3.10828857 7.73131104 3.10305176 8.46970215 3.09765625 9.23046875 C3.09443359 10.03291016 3.09121094 10.83535156 3.08789062 11.66210938 C3.07532227 12.91217773 3.07532227 12.91217773 3.0625 14.1875 C3.05798828 15.03248047 3.05347656 15.87746094 3.04882812 16.74804688 C3.03705403 18.83206155 3.0191189 20.91603977 3 23 C0.16730334 24.41634833 -2.47466438 24.3463005 -5.625 24.5625 C-6.81351563 24.64628906 -8.00203125 24.73007812 -9.2265625 24.81640625 C-10.14179688 24.87699219 -11.05703125 24.93757812 -12 25 C-10.68 25.99 -9.36 26.98 -8 28 C-8.5775 28.061875 -9.155 28.12375 -9.75 28.1875 C-12.88257571 29.3187079 -14.03460851 31.37947801 -16 34 C-19.51145201 35.755726 -23.28528368 34.94474619 -27 34 C-30.24399761 31.44621465 -32.56925473 28.90203256 -34 25 C-34 24.01 -34 23.02 -34 22 C-22.12 22 -10.24 22 2 22 C1.27577448 10.97115075 1.27577448 10.97115075 0 0 Z "
    fill="#11161D" transform="translate(215,721)"/>
  <path
    d="M0 0 C4.62 0 9.24 0 14 0 C13.67 0.99 13.34 1.98 13 3 C9.37 2.67 5.74 2.34 2 2 C2 19.82 2 37.64 2 56 C5.96 56 9.92 56 14 56 C13.98952637 55.01080566 13.97905273 54.02161133 13.96826172 53.00244141 C13.93210981 49.33857836 13.90911718 45.67473114 13.89013672 42.01074219 C13.88006812 40.42380117 13.86641233 38.83687875 13.84912109 37.25 C13.82490999 34.97130753 13.81352578 32.69285994 13.8046875 30.4140625 C13.79436493 29.70255035 13.78404236 28.99103821 13.77340698 28.25796509 C13.77300578 26.50368335 13.87797791 24.75003291 14 23 C14.66 22.34 15.32 21.68 16 21 C15.67 33.21 15.34 45.42 15 58 C10.05 58 5.1 58 0 58 C0 38.86 0 19.72 0 0 Z "
    fill="#DADADA" transform="translate(666,709)"/>
  <path
    d="M0 0 C2.63761924 0.85544408 3.64462647 1.50247706 5.25 3.75 C6 6 6 6 6 12 C-0.6 12 -7.2 12 -14 12 C-13 5 -13 5 -10.375 2.0625 C-6.46130203 -0.32920431 -4.50611764 -0.58412636 0 0 Z "
    fill="#161A22" transform="translate(195,720)"/>
  <path
    d="M0 0 C0.99 0.495 0.99 0.495 2 1 C3.35424652 1.11224337 4.7135699 1.16647198 6.07226562 1.18945312 C7.33629211 1.21452942 7.33629211 1.21452942 8.62585449 1.2401123 C9.54338501 1.25368774 10.46091553 1.26726318 11.40625 1.28125 C12.359552 1.29965942 13.312854 1.31806885 14.29504395 1.33703613 C17.36329854 1.39588006 20.43161425 1.44848309 23.5 1.5 C37.35581966 1.73924039 51.16940984 2.10574339 65 3 C65 3.33 65 3.66 65 4 C51.85555864 5.175196 38.74925629 5.11540274 25.5625 5.0625 C23.36653748 5.05747269 21.17057385 5.05291197 18.97460938 5.04882812 C13.64971472 5.03792534 8.32486276 5.02128574 3 5 C3 4.34 3 3.68 3 3 C2.01 2.67 1.02 2.34 0 2 C0 1.34 0 0.68 0 0 Z "
    fill="#202329" transform="translate(408,491)"/>
  <path
    d="M0 0 C0.33 0 0.66 0 1 0 C1 12.21 1 24.42 1 37 C-3.95 37 -8.9 37 -14 37 C-14.05380781 32.89565949 -14.09358213 28.79202007 -14.125 24.6875 C-14.14175781 23.52025391 -14.15851562 22.35300781 -14.17578125 21.15039062 C-14.18222656 20.03212891 -14.18867187 18.91386719 -14.1953125 17.76171875 C-14.20578613 16.73006592 -14.21625977 15.69841309 -14.22705078 14.63549805 C-14 12 -14 12 -12 9 C-12 17.58 -12 26.16 -12 35 C-8.37 35 -4.74 35 -1 35 C-1.00785522 33.67609253 -1.00785522 33.67609253 -1.01586914 32.32543945 C-1.03295971 29.03604473 -1.04547384 25.74669753 -1.05493164 22.45727539 C-1.05994565 21.03636936 -1.06675852 19.61546844 -1.07543945 18.19458008 C-1.08763388 16.14663424 -1.09325772 14.0987569 -1.09765625 12.05078125 C-1.10289307 10.82012939 -1.10812988 9.58947754 -1.11352539 8.3215332 C-1.01393817 5.40780381 -0.67799322 2.82692674 0 0 Z "
    fill="#FDFCFB" transform="translate(872,730)"/>
  <path
    d="M0 0 C0.66 0 1.32 0 2 0 C3.63945963 3.27891925 3.12030178 6.90613534 3.09765625 10.5078125 C3.09553383 11.76874222 3.09553383 11.76874222 3.09336853 13.05514526 C3.08776237 15.74513275 3.07520886 18.43503759 3.0625 21.125 C3.05748579 22.94661338 3.05292275 24.76822807 3.04882812 26.58984375 C3.03779094 31.05992777 3.0205222 35.52994986 3 40 C6.96 40 10.92 40 15 40 C15.33 39.34 15.66 38.68 16 38 C16 39.32 16 40.64 16 42 C11.05 42 6.1 42 1 42 C0.505 21.21 0.505 21.21 0 0 Z "
    fill="#E3E3E3" transform="translate(500,725)"/>
  <path
    d="M0 0 C5.61 0 11.22 0 17 0 C17 2.31 17 4.62 17 7 C15 9 15 9 11.875 9.125 C10.92625 9.08375 9.9775 9.0425 9 9 C9 8.67 9 8.34 9 8 C-24.66 7.505 -24.66 7.505 -59 7 C-59 6.67 -59 6.34 -59 6 C-34.91 6 -10.82 6 14 6 C14 4.35 14 2.7 14 1 C9.38 1 4.76 1 0 1 C0 0.67 0 0.34 0 0 Z "
    fill="#1F262F" transform="translate(487,409)"/>
  <path
    d="M0 0 C8.58 0 17.16 0 26 0 C26 3.96 26 7.92 26 12 C17.42 12 8.84 12 0 12 C0 8.04 0 4.08 0 0 Z M2 2 C2 4.97 2 7.94 2 11 C9.59 11 17.18 11 25 11 C25 8.03 25 5.06 25 2 C17.41 2 9.82 2 2 2 Z "
    fill="#FDFDFC" transform="translate(382,730)"/>
  <path
    d="M0 0 C0.33 0 0.66 0 1 0 C1.33 11.55 1.66 23.1 2 35 C5.63 35 9.26 35 13 35 C13 25.43 13 15.86 13 6 C13.33 6 13.66 6 14 6 C14.33 16.23 14.66 26.46 15 37 C10.05 37 5.1 37 0 37 C0 24.79 0 12.58 0 0 Z "
    fill="#FDFEFD" transform="translate(892,730)"/>
  <path
    d="M0 0 C0.99 0 1.98 0 3 0 C3 3.96 3 7.92 3 12 C5.97 12 8.94 12 12 12 C11.67 12.66 11.34 13.32 11 14 C10.9283265 16.55157655 10.90691558 19.07472971 10.9375 21.625 C10.94201172 22.33140625 10.94652344 23.0378125 10.95117188 23.765625 C10.96296125 25.51045275 10.98089676 27.255237 11 29 C10.67 29 10.34 29 10 29 C10 24.38 10 19.76 10 15 C8.02 15.33 6.04 15.66 4 16 C3.67 17.98 3.34 19.96 3 22 C2.67 22 2.34 22 2 22 C1.80664062 21.38511719 1.61328125 20.77023437 1.4140625 20.13671875 C1.15367187 19.32847656 0.89328125 18.52023437 0.625 17.6875 C0.36976563 16.88699219 0.11453125 16.08648438 -0.1484375 15.26171875 C-0.98831811 12.77275472 -0.98831811 12.77275472 -3 10 C-2.34 9.67 -1.68 9.34 -1 9 C-0.53348793 6.87423218 -0.53348793 6.87423218 -0.375 4.4375 C-0.30023438 3.61121094 -0.22546875 2.78492188 -0.1484375 1.93359375 C-0.09945312 1.29550781 -0.05046875 0.65742187 0 0 Z "
    fill="#202732" transform="translate(216,709)"/>
  <path
    d="M0 0 C0 5.94 0 11.88 0 18 C3.96 18 7.92 18 12 18 C12 21.96 12 25.92 12 30 C8.04 30 4.08 30 0 30 C0 29.67 0 29.34 0 29 C3.63 29 7.26 29 11 29 C11 26.03 11 23.06 11 20 C10.22914063 20.02320313 9.45828125 20.04640625 8.6640625 20.0703125 C7.66117188 20.08835937 6.65828125 20.10640625 5.625 20.125 C4.62726563 20.14820313 3.62953125 20.17140625 2.6015625 20.1953125 C0 20 0 20 -2 18 C-2.14507695 15.25514407 -2.18652423 12.61519457 -2.125 9.875 C-2.11597656 9.12089844 -2.10695312 8.36679687 -2.09765625 7.58984375 C-2.0740687 5.72642746 -2.03819719 3.86317407 -2 2 C-3.98 2 -5.96 2 -8 2 C-8 1.67 -8 1.34 -8 1 C-2.25 0 -2.25 0 0 0 Z "
    fill="#FDFDFC" transform="translate(243,691)"/>
  <path
    d="M0 0 C0.66 0 1.32 0 2 0 C2.33 7.92 2.66 15.84 3 24 C3.99 23.34 4.98 22.68 6 22 C6.99 22.33 7.98 22.66 9 23 C8.071875 23.598125 7.14375 24.19625 6.1875 24.8125 C2.87258368 26.94450841 2.87258368 26.94450841 0 30 C0 20.1 0 10.2 0 0 Z "
    fill="#0A0C13" transform="translate(481,686)"/>
  <path
    d="M0 0 C7.59 0 15.18 0 23 0 C23.33 0.99 23.66 1.98 24 3 C20.93726169 3.05410136 17.87548548 3.09372225 14.8125 3.125 C13.51602539 3.15013672 13.51602539 3.15013672 12.19335938 3.17578125 C7.67791897 3.21038233 4.09918517 3.15567916 0 1 C0 0.67 0 0.34 0 0 Z "
    fill="#F2F1EE" transform="translate(450,491)"/>
  <path
    d="M0 0 C0 0.33 0 0.66 0 1 C-2.97851562 1.5859375 -2.97851562 1.5859375 -5.95703125 2.171875 C-8.79561991 3.3225075 -9.57996941 4.2638435 -11 7 C-11.49300714 9.91137201 -11.6019387 12.80180191 -11.6875 15.75 C-11.72166016 16.54277344 -11.75582031 17.33554687 -11.79101562 18.15234375 C-11.87319104 20.10107504 -11.93828045 22.05051362 -12 24 C-12.99 23.67 -13.98 23.34 -15 23 C-15.45332258 15.44462364 -15.56532114 9.30298663 -11 3 C-7.72460746 -0.61422625 -4.70702032 -0.27155886 0 0 Z "
    fill="#0F1217" transform="translate(733,721)"/>
  <path
    d="M0 0 C2 3 2 3 3 5 C6.27773504 4.24849977 6.27773504 4.24849977 8 1 C7.41509121 7.14154225 6.45933748 13.00679849 5 19 C2.37013188 16.37013188 2.178728 14.23771675 1.375 10.625 C1.11460937 9.48289062 0.85421875 8.34078125 0.5859375 7.1640625 C0 4 0 4 0 0 Z "
    fill="#0B0D13" transform="translate(632,728)"/>
  <path
    d="M0 0 C13.2 0 26.4 0 40 0 C40 0.33 40 0.66 40 1 C38.28901123 1.07516846 38.28901123 1.07516846 36.54345703 1.15185547 C32.32000137 1.33990167 28.09721159 1.54036596 23.87451172 1.74462891 C22.04524284 1.83136568 20.21581003 1.91471324 18.38623047 1.99462891 C15.75958805 2.10994491 13.1337723 2.23735395 10.5078125 2.3671875 C9.68693146 2.40061249 8.86605042 2.43403748 8.02029419 2.46847534 C3.53896381 2.53727428 3.53896381 2.53727428 0 5 C0 3.35 0 1.7 0 0 Z "
    fill="#DEDEDC" transform="translate(419,520)"/>
  <path
    d="M0 0 C2.97 0 5.94 0 9 0 C9 3.96 9 7.92 9 12 C6.36 12.33 3.72 12.66 1 13 C1.33 12.01 1.66 11.02 2 10 C3.32 10 4.64 10 6 10 C6 7.36 6 4.72 6 2 C3.03 1.505 3.03 1.505 0 1 C0 0.67 0 0.34 0 0 Z "
    fill="#D8D7D6" transform="translate(247,755)"/>
  <path
    d="M0 0 C1.38294718 0.01329757 2.76582404 0.03715018 4.1484375 0.0703125 C4.85484375 0.07933594 5.56125 0.08835937 6.2890625 0.09765625 C8.03399848 0.12123647 9.77876045 0.15710789 11.5234375 0.1953125 C11.5234375 0.8553125 11.5234375 1.5153125 11.5234375 2.1953125 C6.5734375 2.1953125 1.6234375 2.1953125 -3.4765625 2.1953125 C-3.1465625 4.8353125 -2.8165625 7.4753125 -2.4765625 10.1953125 C-3.4665625 10.1953125 -4.4565625 10.1953125 -5.4765625 10.1953125 C-5.671875 4.140625 -5.671875 4.140625 -5.4765625 2.1953125 C-3.4765625 0.1953125 -3.4765625 0.1953125 0 0 Z "
    fill="#131519" transform="translate(431.4765625,406.8046875)"/>
  <path
    d="M0 0 C0.80759766 -0.01224609 1.61519531 -0.02449219 2.44726562 -0.03710938 C6.81602255 -0.04784342 10.21004059 0.14632915 14.1875 2.1875 C11.1875 3.1875 11.1875 3.1875 8.1875 2.1875 C0.80865548 1.5024018 -5.0398936 2.13740042 -11.75390625 5.3125 C-13.8125 6.1875 -13.8125 6.1875 -16.8125 6.1875 C-13.0625 3.1875 -13.0625 3.1875 -10.8125 3.1875 C-10.8125 2.5275 -10.8125 1.8675 -10.8125 1.1875 C-7.45228043 -0.49260978 -3.69152188 0.00290442 0 0 Z "
    fill="#0A0C10" transform="translate(727.8125,706.8125)"/>
  <path
    d="M0 0 C0.33 0 0.66 0 1 0 C1.33 10.23 1.66 20.46 2 31 C-0.99531539 31.99843846 -2.17255732 32.00732761 -5.1875 31.5625 C-6.445625 31.376875 -7.70375 31.19125 -9 31 C-9 30.67 -9 30.34 -9 30 C-5.04 29.505 -5.04 29.505 -1 29 C-0.67 19.43 -0.34 9.86 0 0 Z "
    fill="#1D242E" transform="translate(663,561)"/>
  <path
    d="M0 0 C1.32 0 2.64 0 4 0 C5.60355101 3.50776784 6.22036864 6.14354879 6 10 C5.01 9.01 4.02 8.02 3 7 C2.01 8.32 1.02 9.64 0 11 C-1.125 3.375 -1.125 3.375 0 0 Z "
    fill="#10131B" transform="translate(578,722)"/>
  <path
    d="M0 0 C5.28 0 10.56 0 16 0 C19 8.75 19 8.75 19 11 C18.34 11 17.68 11 17 11 C16.67 8.69 16.34 6.38 16 4 C15.34 4 14.68 4 14 4 C13.67 3.34 13.34 2.68 13 2 C11.37581255 1.91909029 9.75048255 1.86085005 8.125 1.8125 C7.22007812 1.77769531 6.31515625 1.74289062 5.3828125 1.70703125 C4.59648438 1.80371094 3.81015625 1.90039062 3 2 C2.01 3.485 2.01 3.485 1 5 C0.67 3.35 0.34 1.7 0 0 Z "
    fill="#E7E7E6" transform="translate(578,709)"/>
  <path
    d="M0 0 C0.66 0 1.32 0 2 0 C2.8678228 3.10051447 3.71686767 6.20586665 4.5625 9.3125 C4.9327832 10.63411133 4.9327832 10.63411133 5.31054688 11.98242188 C5.53935547 12.82998047 5.76816406 13.67753906 6.00390625 14.55078125 C6.21861572 15.33106689 6.4333252 16.11135254 6.65454102 16.9152832 C7 19 7 19 6 22 C5.67 22 5.34 22 5 22 C4.49363393 20.25183142 3.99515381 18.50137737 3.5 16.75 C3.2215625 15.77546875 2.943125 14.8009375 2.65625 13.796875 C2 11 2 11 2 7 C1.34 7 0.68 7 0 7 C0 4.69 0 2.38 0 0 Z "
    fill="#E9EAE9" transform="translate(628,721)"/>
  <path
    d="M0 0 C0.66 0.33 1.32 0.66 2 1 C2.05389087 2.95803507 2.09274217 4.91648909 2.125 6.875 C2.14820313 7.96554687 2.17140625 9.05609375 2.1953125 10.1796875 C2 13 2 13 0 15 C-1.37252731 12.25494537 -1.13229255 9.99672588 -1.125 6.9375 C-1.12757813 5.85339844 -1.13015625 4.76929688 -1.1328125 3.65234375 C-1 1 -1 1 0 0 Z "
    fill="#21242A" transform="translate(779,731)"/>
  <path
    d="M0 0 C1.8871875 0.061875 1.8871875 0.061875 3.8125 0.125 C4.1425 0.785 4.4725 1.445 4.8125 2.125 C3.554375 2.393125 2.29625 2.66125 1 2.9375 C-2.29506348 3.74386237 -3.94171501 4.52461738 -6.1875 7.125 C-7.1775 7.125 -8.1675 7.125 -9.1875 7.125 C-7.4328046 1.99589037 -5.59164481 -0.18333262 0 0 Z "
    fill="#13171D" transform="translate(491.1875,720.875)"/>
  <path
    d="M0 0 C0.98484375 0.00902344 1.9696875 0.01804687 2.984375 0.02734375 C4.10585938 0.04474609 4.10585938 0.04474609 5.25 0.0625 C1.71717268 3.39955352 -1.18410392 3.47230023 -5.9375 3.625 C-8.21169824 3.70228995 -10.48627997 3.83114957 -12.75 4.0625 C-13.08 4.7225 -13.41 5.3825 -13.75 6.0625 C-14.74 5.7325 -15.73 5.4025 -16.75 5.0625 C-10.8137011 1.52355258 -7.00793502 -0.0834278 0 0 Z "
    fill="#E2E2E1" transform="translate(550.75,707.9375)"/>
  <path
    d="M0 0 C4.95 0 9.9 0 15 0 C15 1.65 15 3.3 15 5 C14.01 5.33 13.02 5.66 12 6 C12 5.01 12 4.02 12 3 C7.71 3 3.42 3 -1 3 C-0.67 2.01 -0.34 1.02 0 0 Z "
    fill="#D5D3D1" transform="translate(389,520)"/>
  <path
    d="M0 0 C0.66 0 1.32 0 2 0 C2 3.96 2 7.92 2 12 C4.97 12 7.94 12 11 12 C11 12.33 11 12.66 11 13 C9.35492782 13.19406478 7.70890406 13.38007935 6.0625 13.5625 C4.68771484 13.71912109 4.68771484 13.71912109 3.28515625 13.87890625 C2.53105469 13.91886719 1.77695313 13.95882812 1 14 C0 13 0 13 -0.09765625 10.05859375 C-0.08605469 8.86363281 -0.07445312 7.66867187 -0.0625 6.4375 C-0.05347656 5.23996094 -0.04445312 4.04242187 -0.03515625 2.80859375 C-0.02355469 1.88175781 -0.01195312 0.95492187 0 0 Z "
    fill="#2D2E32" transform="translate(217,709)"/>
  <path
    d="M0 0 C-1.0625 1.4375 -1.0625 1.4375 -3 3 C-4.7634375 3.2165625 -4.7634375 3.2165625 -6.5625 3.4375 C-8.2640625 3.7159375 -8.2640625 3.7159375 -10 4 C-11.51294288 5.93597032 -11.51294288 5.93597032 -12 8 C-13.32 8 -14.64 8 -16 8 C-16 7.34 -16 6.68 -16 6 C-12.0626473 2.88209634 -4.93058232 -2.46529116 0 0 Z "
    fill="#13161C" transform="translate(616,286)"/>
  <path
    d="M0 0 C0.24213848 2.90566174 0.16185671 4.66729453 -1.125 7.3125 C-3 9 -3 9 -6.1875 9.25 C-7.115625 9.1675 -8.04375 9.085 -9 9 C-9 8.01 -9 7.02 -9 6 C-7.02 6 -5.04 6 -3 6 C-3 4.35 -3 2.7 -3 1 C-1 0 -1 0 0 0 Z "
    fill="#272B32" transform="translate(443,748)"/>
  <path
    d="M0 0 C0.33 0.99 0.66 1.98 1 3 C1.99 2.67 2.98 2.34 4 2 C5.11658501 6.68965706 4.80619523 9.53763531 3 14 C2.67 14 2.34 14 2 14 C-0.29612756 4.58997722 -0.29612756 4.58997722 0 0 Z "
    fill="#12161A" transform="translate(601,733)"/>
  <path
    d="M0 0 C6.75 -0.125 6.75 -0.125 9 1 C9 4.63 9 8.26 9 12 C9.66 12 10.32 12 11 12 C11 13.98 11 15.96 11 18 C8.89625705 16.28438075 8.07353444 15.36104206 7.5234375 12.66015625 C7.47445312 11.80292969 7.42546875 10.94570313 7.375 10.0625 C7.1753981 6.91164143 6.8612015 4.04244135 6 1 C4.02 1 2.04 1 0 1 C0 0.67 0 0.34 0 0 Z "
    fill="#2A3037" transform="translate(694,708)"/>
  <path
    d="M0 0 C1 3 1 3 0 6 C-0.78850137 9.64681882 -1.40058594 13.31788507 -2 17 C-2.66 17 -3.32 17 -4 17 C-2.85997795 4.72657111 -2.85997795 4.72657111 -2 1 C-1.34 0.67 -0.68 0.34 0 0 Z "
    fill="#ECECEA" transform="translate(366,554)"/>
  <path
    d="M0 0 C2 2 2 2 3 8 C-1.62 8.33 -6.24 8.66 -11 9 C-11 8.34 -11 7.68 -11 7 C-5.555 6.505 -5.555 6.505 0 6 C0 4.02 0 2.04 0 0 Z "
    fill="#EEEEEE" transform="translate(157,717)"/>
  <path
    d="M0 0 C2 2 2 2 2.1953125 4.6015625 C2.17210937 5.59929688 2.14890625 6.59703125 2.125 7.625 C2.10695313 8.62789062 2.08890625 9.63078125 2.0703125 10.6640625 C2.03550781 11.82035156 2.03550781 11.82035156 2 13 C1.01 13.495 1.01 13.495 0 14 C-1.49594333 9.32517708 -1.54799337 4.64398011 0 0 Z "
    fill="#23262A" transform="translate(539,732)"/>
  <path
    d="M0 0 C1.9453125 0.73046875 1.9453125 0.73046875 4 2 C5.38284836 6.04522883 5.30164636 10.0146219 4.0625 14.0625 C3.711875 14.701875 3.36125 15.34125 3 16 C2.34 16 1.68 16 1 16 C1 15.01 1 14.02 1 13 C1.66 13 2.32 13 3 13 C2.88490339 11.58249437 2.75746342 10.16598831 2.625 8.75 C2.55539062 7.96109375 2.48578125 7.1721875 2.4140625 6.359375 C1.98492887 3.914123 1.21399362 2.15163097 0 0 Z "
    fill="#16181C" transform="translate(665,400)"/>
  <path
    d="M0 0 C0 1.98 0 3.96 0 6 C-0.66 6 -1.32 6 -2 6 C-1.67 8.31 -1.34 10.62 -1 13 C-1.99 13 -2.98 13 -4 13 C-3.88652381 11.02013918 -3.7589065 9.04108402 -3.625 7.0625 C-3.55539062 5.96035156 -3.48578125 4.85820313 -3.4140625 3.72265625 C-3.27742188 2.82417969 -3.14078125 1.92570313 -3 1 C-1 0 -1 0 0 0 Z "
    fill="#23262E" transform="translate(399,572)"/>
  <path
    d="M0 0 C1.63001953 0.01353516 1.63001953 0.01353516 3.29296875 0.02734375 C4.12441406 0.03894531 4.95585938 0.05054688 5.8125 0.0625 C2.79332379 2.07528414 1.76659238 2.35442943 -1.6875 2.625 C-4.46639602 2.85194318 -6.51005263 3.17001754 -9.1875 4.0625 C-9.1875 3.0725 -9.1875 2.0825 -9.1875 1.0625 C-5.90230525 -0.03256492 -3.45086585 -0.03710608 0 0 Z "
    fill="#E6E5E5" transform="translate(790.1875,707.9375)"/>
  <path
    d="M0 0 C3.96 0 7.92 0 12 0 C7.5 3.375 7.5 3.375 3.25 3.1875 C2.45078125 3.16042969 1.6515625 3.13335938 0.828125 3.10546875 C0.22484375 3.07066406 -0.3784375 3.03585937 -1 3 C-0.67 2.01 -0.34 1.02 0 0 Z "
    fill="#292C32" transform="translate(547,768)"/>
  <path
    d="M0 0 C0.33 0.66 0.66 1.32 1 2 C1.66 2 2.32 2 3 2 C2.67 5.3 2.34 8.6 2 12 C-0.79496066 9.20503934 -0.66104876 6.86404416 -1 3 C-0.67 2.01 -0.34 1.02 0 0 Z "
    fill="#16171E" transform="translate(635,735)"/>
  <path d="M0 0 C0.99 0 1.98 0 3 0 C3 3.63 3 7.26 3 11 C2.01 11 1.02 11 0 11 C0 7.37 0 3.74 0 0 Z " fill="#1D222A"
        transform="translate(560,733)"/>
  <path
    d="M0 0 C3.00617269 3.00617269 2.59585316 5.82381598 3 10 C2.67 9.01 2.34 8.02 2 7 C1.34 7 0.68 7 0 7 C-0.33 8.98 -0.66 10.96 -1 13 C-1.33 13 -1.66 13 -2 13 C-1.48041715 8.62065881 -0.94324258 4.31196609 0 0 Z "
    fill="#101114" transform="translate(619,732)"/>
  <path
    d="M0 0 C0.33 0 0.66 0 1 0 C1.04254356 1.99954746 1.04080783 4.00041636 1 6 C0.67 6.33 0.34 6.66 0 7 C-0.04063832 8.66617115 -0.042721 10.33388095 0 12 C-0.99 12 -1.98 12 -3 12 C-2.88601335 10.37419034 -2.75844341 8.74932843 -2.625 7.125 C-2.55539062 6.22007812 -2.48578125 5.31515625 -2.4140625 4.3828125 C-2 2 -2 2 0 0 Z "
    fill="#21242B" transform="translate(403,537)"/>
  <path
    d="M0 0 C0.33 0.66 0.66 1.32 1 2 C0.67 2.66 0.34 3.32 0 4 C-0.22622081 5.70363822 -0.40888473 7.41328701 -0.5625 9.125 C-0.68818359 10.49011719 -0.68818359 10.49011719 -0.81640625 11.8828125 C-0.87699219 12.58148437 -0.93757812 13.28015625 -1 14 C-3.04714455 11.48043748 -3.95850507 10.28453664 -4.4375 7 C-3.90883564 3.37487294 -2.79352638 2.26974019 0 0 Z "
    fill="#1F242D" transform="translate(877,725)"/>
  <path
    d="M0 0 C3.63 0.33 7.26 0.66 11 1 C10.67 1.99 10.34 2.98 10 4 C8.02 4 6.04 4 4 4 C4 3.34 4 2.68 4 2 C2.68 1.67 1.36 1.34 0 1 C0 0.67 0 0.34 0 0 Z "
    fill="#EFEEEC" transform="translate(340,754)"/>
  <path
    d="M0 0 C1.25127906 3.54667178 0.72285053 5.72253438 -0.4375 9.25 C-0.72496094 10.14203125 -1.01242187 11.0340625 -1.30859375 11.953125 C-1.53675781 12.62859375 -1.76492188 13.3040625 -2 14 C-2.33 14 -2.66 14 -3 14 C-2.88655624 11.8535247 -2.75893655 9.70779408 -2.625 7.5625 C-2.52058594 5.77005859 -2.52058594 5.77005859 -2.4140625 3.94140625 C-2.27742187 2.97074219 -2.14078125 2.00007812 -2 1 C-1.34 0.67 -0.68 0.34 0 0 Z "
    fill="#EEEEEE" transform="translate(614,747)"/>
  <path
    d="M0 0 C0.66 0.33 1.32 0.66 2 1 C0.02 3.31 -1.96 5.62 -4 8 C-5.32 7.67 -6.64 7.34 -8 7 C-5.36 4.69 -2.72 2.38 0 0 Z "
    fill="#0F1318" transform="translate(591,300)"/>
  <path
    d="M0 0 C0.66 0 1.32 0 2 0 C2.66 0.99 3.32 1.98 4 3 C5.32 2.34 6.64 1.68 8 1 C7.02471263 2.33617352 6.04466681 3.6688751 5.0625 5 C4.51722656 5.7425 3.97195313 6.485 3.41015625 7.25 C2.71212891 8.11625 2.71212891 8.11625 2 9 C1.67 9 1.34 9 1 9 C0.67 6.03 0.34 3.06 0 0 Z "
    fill="#040509" transform="translate(680,709)"/>
  <path d="M0 0 C0.66 0 1.32 0 2 0 C2.33 1.65 2.66 3.3 3 5 C1.02 6.32 -0.96 7.64 -3 9 C-2.01 6.03 -1.02 3.06 0 0 Z "
        fill="#EFEFED" transform="translate(634,313)"/>
  <path
    d="M0 0 C0 0.66 0 1.32 0 2 C-1.61457079 3.43581474 -3.29219075 4.80144783 -5 6.125 C-5.928125 6.84945313 -6.85625 7.57390625 -7.8125 8.3203125 C-8.534375 8.87460937 -9.25625 9.42890625 -10 10 C-10 7 -10 7 -8.3203125 5.17578125 C-7.59585938 4.56089844 -6.87140625 3.94601562 -6.125 3.3125 C-5.40570312 2.68988281 -4.68640625 2.06726563 -3.9453125 1.42578125 C-2 0 -2 0 0 0 Z "
    fill="#EEEFEF" transform="translate(595,296)"/>
  <path d="M0 0 C2.64 0 5.28 0 8 0 C8.33 0.99 8.66 1.98 9 3 C5.7 3 2.4 3 -1 3 C-0.67 2.01 -0.34 1.02 0 0 Z "
        fill="#24272F" transform="translate(432,768)"/>
  <path
    d="M0 0 C1.23556641 0.01740234 1.23556641 0.01740234 2.49609375 0.03515625 C3.32238281 0.04417969 4.14867187 0.05320312 5 0.0625 C5.63808594 0.07410156 6.27617187 0.08570313 6.93359375 0.09765625 C6.60359375 0.75765625 6.27359375 1.41765625 5.93359375 2.09765625 C2.49609375 2.84765625 2.49609375 2.84765625 -1.06640625 3.09765625 C-1.72640625 2.43765625 -2.38640625 1.77765625 -3.06640625 1.09765625 C-2.06640625 0.09765625 -2.06640625 0.09765625 0 0 Z "
    fill="#26292D" transform="translate(138.06640625,753.90234375)"/>
  <path
    d="M0 0 C0.2475 0.556875 0.495 1.11375 0.75 1.6875 C1.99199765 4.15464798 1.99199765 4.15464798 4.125 6.625 C6 9 6 9 6 11 C4.1875 10.4375 4.1875 10.4375 2 9 C0.1875 5.5 0.1875 5.5 -1 2 C-0.67 1.34 -0.34 0.68 0 0 Z "
    fill="#E6E6E6" transform="translate(718,744)"/>
  <path
    d="M0 0 C1.07174763 3.65188082 0.76411467 6.26432828 0 10 C-0.66 10 -1.32 10 -2 10 C-2.33 10.99 -2.66 11.98 -3 13 C-4 11 -4 11 -3.22265625 8.3984375 C-2.83980469 7.40070313 -2.45695313 6.40296875 -2.0625 5.375 C-1.68222656 4.37210937 -1.30195312 3.36921875 -0.91015625 2.3359375 C-0.60980469 1.56507813 -0.30945313 0.79421875 0 0 Z "
    fill="#E8E9E8" transform="translate(629,325)"/>
  <path
    d="M0 0 C0 3.99904969 -1.72586967 5.80200422 -4 9 C-4.33 8.34 -4.66 7.68 -5 7 C-4.67 6.34 -4.34 5.68 -4 5 C-4.66 4.67 -5.32 4.34 -6 4 C-5.34 3.34 -4.68 2.68 -4 2 C-3.34 2 -2.68 2 -2 2 C-1.34 1.34 -0.68 0.68 0 0 Z "
    fill="#101319" transform="translate(709,715)"/>
  <path
    d="M0 0 C0.66 0 1.32 0 2 0 C2 2.64 2 5.28 2 8 C1.01 8.495 1.01 8.495 0 9 C-0.87890625 2.84765625 -0.87890625 2.84765625 -1 1 C-0.67 0.67 -0.34 0.34 0 0 Z "
    fill="#EBEBEA" transform="translate(475,519)"/>
  <path
    d="M0 0 C2.29633824 3.44450737 2.54016485 5.93812283 3 10 C2.01 9.67 1.02 9.34 0 9 C-1.125 2.25 -1.125 2.25 0 0 Z "
    fill="#F0EFED" transform="translate(407,477)"/>
  <path d="M0 0 C0.33 0 0.66 0 1 0 C1.33 3.63 1.66 7.26 2 11 C1.01 11 0.02 11 -1 11 C-0.67 7.37 -0.34 3.74 0 0 Z "
        fill="#272B30" transform="translate(401,447)"/>
  <path
    d="M0 0 C2.875 -0.125 2.875 -0.125 6 0 C6.66 0.66 7.32 1.32 8 2 C5.69 2.33 3.38 2.66 1 3 C0.67 2.01 0.34 1.02 0 0 Z "
    fill="#22252A" transform="translate(547,753)"/>
  <path
    d="M0 0 C0.99 0 1.98 0 3 0 C2.34 2.97 1.68 5.94 1 9 C-1 6 -1 6 -0.625 2.8125 C-0.41875 1.884375 -0.2125 0.95625 0 0 Z "
    fill="#21262D" transform="translate(616,743)"/>
  <path
    d="M0 0 C1.21236328 0.04060547 1.21236328 0.04060547 2.44921875 0.08203125 C3.06410156 0.11683594 3.67898438 0.15164063 4.3125 0.1875 C1.81744038 2.68255962 0.63921112 2.54698376 -2.8125 2.8125 C-3.72257813 2.88726563 -4.63265625 2.96203125 -5.5703125 3.0390625 C-6.61832031 3.11253906 -6.61832031 3.11253906 -7.6875 3.1875 C-5.26849268 0.20484049 -3.789448 -0.16475861 0 0 Z "
    fill="#101316" transform="translate(550.6875,720.8125)"/>
  <path d="M0 0 C0.99 0.33 1.98 0.66 3 1 C3.33 3.97 3.66 6.94 4 10 C0 4 0 4 0 0 Z " fill="#DEDEDC"
        transform="translate(459,533)"/>
</svg>
